<svg width="150" height="30" viewBox="0 0 263 80" fill="none" xmlns="http://www.w3.org/2000/svg">
<path fill-rule="evenodd" clip-rule="evenodd" d="M70.2377 9.66625C70.3853 9.44817 70.3384 9.153 70.1306 8.99134L66.42 6.10537C66.1924 5.92832 65.8626 5.98001 65.7001 6.21822L37.3983 47.6949C37.2039 47.9799 36.7861 47.987 36.5821 47.7088L26.3042 33.6934C26.1376 33.4663 25.8163 33.4215 25.594 33.5944L21.8764 36.4859C21.6657 36.6498 21.6209 36.9503 21.7747 37.1685L36.583 58.1868C36.7845 58.4727 37.2098 58.4687 37.4058 58.179L70.2377 9.66625ZM54.2064 15.3608C54.4803 14.9874 54.1432 14.4745 53.6918 14.5777L37.6027 18.2552C37.535 18.2707 37.4648 18.2719 37.3966 18.2587L9.59474 12.8934C9.28629 12.8339 9 13.0702 9 13.3844V45.2787C9 55.2787 23.5 74.7787 37 74.7787C50.5 74.7787 65 53.7787 65 45.2787V28.2041C65 27.7314 64.4048 27.5226 64.1096 27.8917L59.1096 34.1417C59.0386 34.2304 59 34.3405 59 34.4541V45.2787C59 51.2787 48 68.2787 37 68.2787C26 68.2787 15 52.2787 15 45.2787V20.8778C15 20.5658 15.2825 20.33 15.5894 20.3858L36.9061 24.2616C36.9681 24.2729 37.0318 24.2723 37.0936 24.2599L49.3097 21.8167C49.4321 21.7922 49.541 21.7228 49.6148 21.6221L54.2064 15.3608Z" fill="#3FBA8D"/>
<path d="M129.867 53.7872H135.874V33.8215C135.874 28.2151 133.014 25.4691 127.922 25.4691C123.803 25.4691 120.142 28.0435 118.54 30.5606C117.625 27.5286 115.108 25.4691 110.989 25.4691C106.812 25.4691 103.151 28.2151 102.007 29.9313V26.1556H96V53.7872H102.007V34.508C103.265 32.6773 105.725 30.7895 108.357 30.7895C111.618 30.7895 112.934 32.7918 112.934 35.7666V53.7872H118.941V34.4508C120.142 32.6773 122.659 30.7895 125.348 30.7895C128.551 30.7895 129.867 32.7918 129.867 35.7666V53.7872Z" fill="#3FBA8D"/>
<path d="M143.369 59.222L142.454 64.5995C143.312 64.8284 144.971 65 145.829 65C150.119 64.9428 153.438 63.4554 155.325 58.7643L168.655 26.1556H162.19L154.124 46.865L146.058 26.1556H139.65L150.978 54.1304L149.605 57.2769C148.804 59.1075 147.545 59.6796 145.657 59.6796C144.971 59.6796 143.998 59.508 143.369 59.222Z" fill="#3FBA8D"/>
<path d="M190.619 54.4737C198.628 54.4737 203.319 50.4691 206.237 45.8924L200.516 42.9748C198.685 46.1785 195.024 48.524 190.619 48.524C183.353 48.524 177.747 42.746 177.747 34.7368C177.747 26.7277 183.353 20.9497 190.619 20.9497C195.024 20.9497 198.685 23.3524 200.516 26.4989L206.237 23.5812C203.376 19.0046 198.628 15 190.619 15C179.635 15 170.882 23.0092 170.882 34.7368C170.882 46.4645 179.635 54.4737 190.619 54.4737Z" fill="#3FBA8D"/>
<path d="M209.877 34.7368C209.877 46.1213 217.944 54.4737 229.385 54.4737C240.827 54.4737 248.893 46.1213 248.893 34.7368C248.893 23.3524 240.827 15 229.385 15C217.944 15 209.877 23.3524 209.877 34.7368ZM242.028 34.7368C242.028 42.5744 237.051 48.524 229.385 48.524C221.662 48.524 216.742 42.5744 216.742 34.7368C216.742 26.8421 221.662 20.9497 229.385 20.9497C237.051 20.9497 242.028 26.8421 242.028 34.7368Z" fill="#3FBA8D"/>
<path d="M255.338 53.7872H262.031V15.6293H255.338V53.7872Z" fill="#3FBA8D"/>
</svg>