<svg width="18" height="18" viewBox="0 0 18 18" fill="none" xmlns="http://www.w3.org/2000/svg">
<path fill-rule="evenodd" clip-rule="evenodd" d="M9 0.994995C4.59725 0.994995 0.994995 4.59725 0.994995 9C0.994995 13.4027 4.59725 17.005 9 17.005C13.4027 17.005 17.005 13.4027 17.005 9C17.005 4.59725 13.4027 0.994995 9 0.994995ZM9 14.0031C8.39962 14.0031 7.99937 13.6029 7.99937 13.0025C7.99937 12.4021 8.39962 12.0019 9 12.0019C9.60037 12.0019 10.0006 12.4021 10.0006 13.0025C10.0006 13.6029 9.60037 14.0031 9 14.0031ZM10.0006 10.0006C10.0006 9.8005 10.0006 9.70043 10.5009 9.40025C11.1013 9 12.0019 8.39962 12.0019 6.99874C12.0019 5.29768 10.7011 3.99687 9 3.99687C7.89931 3.99687 6.89868 4.59724 6.39837 5.49781L5.89806 6.39837L7.59912 7.39899L8.09943 6.49843C8.29956 6.19825 8.59974 5.99812 9 5.99812C9.60037 5.99812 10.0006 6.39837 10.0006 6.99874C10.0006 7.29893 9.90056 7.39899 9.40024 7.69918C8.79987 8.09943 7.99937 8.69981 7.99937 10.0006V11.0012H10.0006V10.0006Z" fill="#1C1C1C"/>
</svg>
