<svg width="132" height="40" viewBox="0 0 132 40" fill="none" xmlns="http://www.w3.org/2000/svg">
<path fill-rule="evenodd" clip-rule="evenodd" d="M35.2493 5.02876C35.3984 4.81006 35.3513 4.51305 35.1417 4.3513L33.6662 3.21219C33.439 3.03683 33.1112 3.08824 32.9486 3.32472L19.0364 23.5613C18.8418 23.8444 18.4263 23.8514 18.2222 23.5752L13.4011 17.05C13.2346 16.8246 12.9153 16.7801 12.6935 16.9514L11.211 18.0958C10.9986 18.2598 10.9535 18.5622 11.1088 18.781L18.223 28.8033C18.4246 29.0873 18.8476 29.0834 19.0439 28.7956L35.2493 5.02876ZM26.9068 8.22183C27.1823 7.84903 26.8461 7.33455 26.3941 7.4371L18.9929 9.11619C18.9256 9.13145 18.8559 9.13263 18.7882 9.11965L5.12788 6.50311C4.81962 6.44407 4.53381 6.68032 4.53381 6.99419V22.6393C4.53381 27.6393 11.8383 37.3893 18.639 37.3893C25.4397 37.3893 32.7442 26.8893 32.7442 22.6393V14.8064C32.7442 14.3347 32.1509 14.1254 31.8549 14.4927L29.8324 17.002C29.7607 17.0909 29.7216 17.2016 29.7216 17.3157V22.6393C29.7216 25.6393 24.1803 34.1393 18.639 34.1393C13.0977 34.1393 7.55635 26.1393 7.55635 22.6393V10.7376C7.55635 10.4259 7.83842 10.1902 8.14515 10.2456L18.5458 12.1225C18.6074 12.1336 18.6705 12.1331 18.7319 12.1209L24.7462 10.927C24.8683 10.9028 24.977 10.8338 25.0509 10.7337L26.9068 8.22183Z" fill="white"/>
<path d="M65.4215 26.8936H68.4475V16.9108C68.4475 14.1076 67.0066 12.7346 64.4417 12.7346C62.3667 12.7346 60.5223 14.0217 59.7153 15.2803C59.2542 13.7643 57.9862 12.7346 55.9112 12.7346C53.8074 12.7346 51.963 14.1076 51.3866 14.9657V13.0778H48.3606V26.8936H51.3866V17.254C52.0207 16.3387 53.2599 15.3947 54.5856 15.3947C56.2282 15.3947 56.8911 16.3959 56.8911 17.8833V26.8936H59.9171V17.2254C60.5223 16.3387 61.7903 15.3947 63.1448 15.3947C64.7587 15.3947 65.4215 16.3959 65.4215 17.8833V26.8936Z" fill="white"/>
<path d="M72.223 29.611L71.7619 32.2998C72.1942 32.4142 73.03 32.5 73.4622 32.5C75.6237 32.4714 77.2952 31.7277 78.2462 29.3822L84.961 13.0778H81.7045L77.641 23.4325L73.5775 13.0778H70.3498L76.056 27.0652L75.3643 28.6384C74.9608 29.5538 74.3268 29.8398 73.3758 29.8398C73.03 29.8398 72.54 29.754 72.223 29.611Z" fill="white"/>
<path d="M96.0255 27.2368C100.06 27.2368 102.423 25.2346 103.893 22.9462L101.011 21.4874C100.089 23.0892 98.2446 24.262 96.0255 24.262C92.3655 24.262 89.5412 21.373 89.5412 17.3684C89.5412 13.3638 92.3655 10.4748 96.0255 10.4748C98.2446 10.4748 100.089 11.6762 101.011 13.2494L103.893 11.7906C102.452 9.50229 100.06 7.5 96.0255 7.5C90.4923 7.5 86.083 11.5046 86.083 17.3684C86.083 23.2323 90.4923 27.2368 96.0255 27.2368Z" fill="white"/>
<path d="M105.727 17.3684C105.727 23.0606 109.791 27.2368 115.554 27.2368C121.318 27.2368 125.382 23.0606 125.382 17.3684C125.382 11.6762 121.318 7.5 115.554 7.5C109.791 7.5 105.727 11.6762 105.727 17.3684ZM121.923 17.3684C121.923 21.2872 119.416 24.262 115.554 24.262C111.664 24.262 109.185 21.2872 109.185 17.3684C109.185 13.4211 111.664 10.4748 115.554 10.4748C119.416 10.4748 121.923 13.4211 121.923 17.3684Z" fill="white"/>
<path d="M128.628 26.8936H132V7.81464H128.628V26.8936Z" fill="white"/>
</svg>
